<mxfile host="app.diagrams.net" agent="Mozilla/5.0 (Windows NT 10.0; Win64; x64) AppleWebKit/537.36 (KHTML, like Gecko) Chrome/130.0.0.0 Safari/537.36" version="24.8.2">
  <diagram name="Page-1" id="ABgqr5MRIIy8Adv3RTwg">
    <mxGraphModel dx="2284" dy="738" grid="1" gridSize="10" guides="1" tooltips="1" connect="1" arrows="1" fold="1" page="1" pageScale="1" pageWidth="850" pageHeight="1100" math="0" shadow="0">
      <root>
        <mxCell id="0" />
        <mxCell id="1" parent="0" />
        <mxCell id="Md-v3TyA_MEy-HlheHZx-1" value="&lt;b&gt;House&lt;/b&gt;" style="swimlane;fontStyle=0;childLayout=stackLayout;horizontal=1;startSize=26;fillColor=none;horizontalStack=0;resizeParent=1;resizeParentMax=0;resizeLast=0;collapsible=1;marginBottom=0;whiteSpace=wrap;html=1;" vertex="1" parent="1">
          <mxGeometry x="300" y="190" width="170" height="130" as="geometry" />
        </mxCell>
        <mxCell id="Md-v3TyA_MEy-HlheHZx-2" value="&amp;nbsp;+ LotNumber : int" style="text;strokeColor=none;fillColor=none;align=left;verticalAlign=top;spacingLeft=4;spacingRight=4;overflow=hidden;rotatable=0;points=[[0,0.5],[1,0.5]];portConstraint=eastwest;whiteSpace=wrap;html=1;" vertex="1" parent="Md-v3TyA_MEy-HlheHZx-1">
          <mxGeometry y="26" width="170" height="26" as="geometry" />
        </mxCell>
        <mxCell id="Md-v3TyA_MEy-HlheHZx-3" value="&amp;nbsp;+ NumberOfRooms : int" style="text;strokeColor=none;fillColor=none;align=left;verticalAlign=top;spacingLeft=4;spacingRight=4;overflow=hidden;rotatable=0;points=[[0,0.5],[1,0.5]];portConstraint=eastwest;whiteSpace=wrap;html=1;" vertex="1" parent="Md-v3TyA_MEy-HlheHZx-1">
          <mxGeometry y="52" width="170" height="26" as="geometry" />
        </mxCell>
        <mxCell id="Md-v3TyA_MEy-HlheHZx-4" value="&amp;nbsp;+ SquareFeet : double" style="text;strokeColor=none;fillColor=none;align=left;verticalAlign=top;spacingLeft=4;spacingRight=4;overflow=hidden;rotatable=0;points=[[0,0.5],[1,0.5]];portConstraint=eastwest;whiteSpace=wrap;html=1;" vertex="1" parent="Md-v3TyA_MEy-HlheHZx-1">
          <mxGeometry y="78" width="170" height="26" as="geometry" />
        </mxCell>
        <mxCell id="Md-v3TyA_MEy-HlheHZx-5" value="&amp;nbsp;+ ColonistsAssigned : int" style="text;strokeColor=none;fillColor=none;align=left;verticalAlign=top;spacingLeft=4;spacingRight=4;overflow=hidden;rotatable=0;points=[[0,0.5],[1,0.5]];portConstraint=eastwest;whiteSpace=wrap;html=1;" vertex="1" parent="Md-v3TyA_MEy-HlheHZx-1">
          <mxGeometry y="104" width="170" height="26" as="geometry" />
        </mxCell>
        <mxCell id="Md-v3TyA_MEy-HlheHZx-6" value="&lt;b&gt;Colonist&lt;/b&gt;" style="swimlane;fontStyle=0;childLayout=stackLayout;horizontal=1;startSize=26;fillColor=none;horizontalStack=0;resizeParent=1;resizeParentMax=0;resizeLast=0;collapsible=1;marginBottom=0;whiteSpace=wrap;html=1;" vertex="1" parent="1">
          <mxGeometry x="300" y="460" width="170" height="338" as="geometry" />
        </mxCell>
        <mxCell id="Md-v3TyA_MEy-HlheHZx-7" value="&amp;nbsp; &amp;nbsp; + ColonistID : int" style="text;strokeColor=none;fillColor=none;align=left;verticalAlign=top;spacingLeft=4;spacingRight=4;overflow=hidden;rotatable=0;points=[[0,0.5],[1,0.5]];portConstraint=eastwest;whiteSpace=wrap;html=1;" vertex="1" parent="Md-v3TyA_MEy-HlheHZx-6">
          <mxGeometry y="26" width="170" height="26" as="geometry" />
        </mxCell>
        <mxCell id="Md-v3TyA_MEy-HlheHZx-8" value="&amp;nbsp; &amp;nbsp; + FirstName : String" style="text;strokeColor=none;fillColor=none;align=left;verticalAlign=top;spacingLeft=4;spacingRight=4;overflow=hidden;rotatable=0;points=[[0,0.5],[1,0.5]];portConstraint=eastwest;whiteSpace=wrap;html=1;" vertex="1" parent="Md-v3TyA_MEy-HlheHZx-6">
          <mxGeometry y="52" width="170" height="26" as="geometry" />
        </mxCell>
        <mxCell id="Md-v3TyA_MEy-HlheHZx-9" value="&amp;nbsp; &amp;nbsp; + MiddleName : String" style="text;strokeColor=none;fillColor=none;align=left;verticalAlign=top;spacingLeft=4;spacingRight=4;overflow=hidden;rotatable=0;points=[[0,0.5],[1,0.5]];portConstraint=eastwest;whiteSpace=wrap;html=1;" vertex="1" parent="Md-v3TyA_MEy-HlheHZx-6">
          <mxGeometry y="78" width="170" height="26" as="geometry" />
        </mxCell>
        <mxCell id="Md-v3TyA_MEy-HlheHZx-10" value="&amp;nbsp; &amp;nbsp; + Surname : String" style="text;strokeColor=none;fillColor=none;align=left;verticalAlign=top;spacingLeft=4;spacingRight=4;overflow=hidden;rotatable=0;points=[[0,0.5],[1,0.5]];portConstraint=eastwest;whiteSpace=wrap;html=1;" vertex="1" parent="Md-v3TyA_MEy-HlheHZx-6">
          <mxGeometry y="104" width="170" height="26" as="geometry" />
        </mxCell>
        <mxCell id="Md-v3TyA_MEy-HlheHZx-11" value="&amp;nbsp; &amp;nbsp; + DateOfBirth : Date" style="text;strokeColor=none;fillColor=none;align=left;verticalAlign=top;spacingLeft=4;spacingRight=4;overflow=hidden;rotatable=0;points=[[0,0.5],[1,0.5]];portConstraint=eastwest;whiteSpace=wrap;html=1;" vertex="1" parent="Md-v3TyA_MEy-HlheHZx-6">
          <mxGeometry y="130" width="170" height="26" as="geometry" />
        </mxCell>
        <mxCell id="Md-v3TyA_MEy-HlheHZx-12" value="&amp;nbsp; &amp;nbsp; + Qualification : String" style="text;strokeColor=none;fillColor=none;align=left;verticalAlign=top;spacingLeft=4;spacingRight=4;overflow=hidden;rotatable=0;points=[[0,0.5],[1,0.5]];portConstraint=eastwest;whiteSpace=wrap;html=1;" vertex="1" parent="Md-v3TyA_MEy-HlheHZx-6">
          <mxGeometry y="156" width="170" height="26" as="geometry" />
        </mxCell>
        <mxCell id="Md-v3TyA_MEy-HlheHZx-13" value="&amp;nbsp; &amp;nbsp; + Age : int" style="text;strokeColor=none;fillColor=none;align=left;verticalAlign=top;spacingLeft=4;spacingRight=4;overflow=hidden;rotatable=0;points=[[0,0.5],[1,0.5]];portConstraint=eastwest;whiteSpace=wrap;html=1;" vertex="1" parent="Md-v3TyA_MEy-HlheHZx-6">
          <mxGeometry y="182" width="170" height="26" as="geometry" />
        </mxCell>
        <mxCell id="Md-v3TyA_MEy-HlheHZx-14" value="&amp;nbsp; &amp;nbsp; + EarthAddress : String" style="text;strokeColor=none;fillColor=none;align=left;verticalAlign=top;spacingLeft=4;spacingRight=4;overflow=hidden;rotatable=0;points=[[0,0.5],[1,0.5]];portConstraint=eastwest;whiteSpace=wrap;html=1;" vertex="1" parent="Md-v3TyA_MEy-HlheHZx-6">
          <mxGeometry y="208" width="170" height="26" as="geometry" />
        </mxCell>
        <mxCell id="Md-v3TyA_MEy-HlheHZx-15" value="&amp;nbsp; &amp;nbsp; + Gender : String" style="text;strokeColor=none;fillColor=none;align=left;verticalAlign=top;spacingLeft=4;spacingRight=4;overflow=hidden;rotatable=0;points=[[0,0.5],[1,0.5]];portConstraint=eastwest;whiteSpace=wrap;html=1;" vertex="1" parent="Md-v3TyA_MEy-HlheHZx-6">
          <mxGeometry y="234" width="170" height="26" as="geometry" />
        </mxCell>
        <mxCell id="Md-v3TyA_MEy-HlheHZx-16" value="&amp;nbsp; &amp;nbsp; + ContactNo : String" style="text;strokeColor=none;fillColor=none;align=left;verticalAlign=top;spacingLeft=4;spacingRight=4;overflow=hidden;rotatable=0;points=[[0,0.5],[1,0.5]];portConstraint=eastwest;whiteSpace=wrap;html=1;" vertex="1" parent="Md-v3TyA_MEy-HlheHZx-6">
          <mxGeometry y="260" width="170" height="26" as="geometry" />
        </mxCell>
        <mxCell id="Md-v3TyA_MEy-HlheHZx-17" value="&amp;nbsp; &amp;nbsp; + CivilStatus : String" style="text;strokeColor=none;fillColor=none;align=left;verticalAlign=top;spacingLeft=4;spacingRight=4;overflow=hidden;rotatable=0;points=[[0,0.5],[1,0.5]];portConstraint=eastwest;whiteSpace=wrap;html=1;" vertex="1" parent="Md-v3TyA_MEy-HlheHZx-6">
          <mxGeometry y="286" width="170" height="26" as="geometry" />
        </mxCell>
        <mxCell id="Md-v3TyA_MEy-HlheHZx-18" value="&amp;nbsp; &amp;nbsp; + FamilyCount : int" style="text;strokeColor=none;fillColor=none;align=left;verticalAlign=top;spacingLeft=4;spacingRight=4;overflow=hidden;rotatable=0;points=[[0,0.5],[1,0.5]];portConstraint=eastwest;whiteSpace=wrap;html=1;" vertex="1" parent="Md-v3TyA_MEy-HlheHZx-6">
          <mxGeometry y="312" width="170" height="26" as="geometry" />
        </mxCell>
        <mxCell id="Md-v3TyA_MEy-HlheHZx-19" value="" style="endArrow=none;html=1;rounded=0;entryX=0.5;entryY=1;entryDx=0;entryDy=0;entryPerimeter=0;exitX=0.5;exitY=0;exitDx=0;exitDy=0;" edge="1" parent="1" source="Md-v3TyA_MEy-HlheHZx-6" target="Md-v3TyA_MEy-HlheHZx-5">
          <mxGeometry width="50" height="50" relative="1" as="geometry">
            <mxPoint x="150" y="560" as="sourcePoint" />
            <mxPoint x="200" y="510" as="targetPoint" />
          </mxGeometry>
        </mxCell>
        <mxCell id="Md-v3TyA_MEy-HlheHZx-20" value="1" style="text;html=1;align=center;verticalAlign=middle;resizable=0;points=[];autosize=1;strokeColor=none;fillColor=none;" vertex="1" parent="1">
          <mxGeometry x="355" y="318" width="30" height="30" as="geometry" />
        </mxCell>
        <mxCell id="Md-v3TyA_MEy-HlheHZx-21" value="Assigned to" style="text;html=1;align=center;verticalAlign=middle;resizable=0;points=[];autosize=1;strokeColor=none;fillColor=none;" vertex="1" parent="1">
          <mxGeometry x="385" y="378" width="90" height="30" as="geometry" />
        </mxCell>
        <mxCell id="Md-v3TyA_MEy-HlheHZx-22" value="&lt;b&gt;Dependent&lt;/b&gt;" style="swimlane;fontStyle=0;childLayout=stackLayout;horizontal=1;startSize=26;fillColor=none;horizontalStack=0;resizeParent=1;resizeParentMax=0;resizeLast=0;collapsible=1;marginBottom=0;whiteSpace=wrap;html=1;" vertex="1" parent="1">
          <mxGeometry x="270" y="910" width="230" height="182" as="geometry" />
        </mxCell>
        <mxCell id="Md-v3TyA_MEy-HlheHZx-23" value="&amp;nbsp; &amp;nbsp; + DependentID : int" style="text;strokeColor=none;fillColor=none;align=left;verticalAlign=top;spacingLeft=4;spacingRight=4;overflow=hidden;rotatable=0;points=[[0,0.5],[1,0.5]];portConstraint=eastwest;whiteSpace=wrap;html=1;" vertex="1" parent="Md-v3TyA_MEy-HlheHZx-22">
          <mxGeometry y="26" width="230" height="26" as="geometry" />
        </mxCell>
        <mxCell id="Md-v3TyA_MEy-HlheHZx-24" value="&amp;nbsp; &amp;nbsp; + DependentName : String" style="text;strokeColor=none;fillColor=none;align=left;verticalAlign=top;spacingLeft=4;spacingRight=4;overflow=hidden;rotatable=0;points=[[0,0.5],[1,0.5]];portConstraint=eastwest;whiteSpace=wrap;html=1;" vertex="1" parent="Md-v3TyA_MEy-HlheHZx-22">
          <mxGeometry y="52" width="230" height="26" as="geometry" />
        </mxCell>
        <mxCell id="Md-v3TyA_MEy-HlheHZx-25" value="&amp;nbsp; &amp;nbsp; + DateOfBirth : Date" style="text;strokeColor=none;fillColor=none;align=left;verticalAlign=top;spacingLeft=4;spacingRight=4;overflow=hidden;rotatable=0;points=[[0,0.5],[1,0.5]];portConstraint=eastwest;whiteSpace=wrap;html=1;" vertex="1" parent="Md-v3TyA_MEy-HlheHZx-22">
          <mxGeometry y="78" width="230" height="26" as="geometry" />
        </mxCell>
        <mxCell id="Md-v3TyA_MEy-HlheHZx-26" value="&amp;nbsp; &amp;nbsp; + Age : int" style="text;strokeColor=none;fillColor=none;align=left;verticalAlign=top;spacingLeft=4;spacingRight=4;overflow=hidden;rotatable=0;points=[[0,0.5],[1,0.5]];portConstraint=eastwest;whiteSpace=wrap;html=1;" vertex="1" parent="Md-v3TyA_MEy-HlheHZx-22">
          <mxGeometry y="104" width="230" height="26" as="geometry" />
        </mxCell>
        <mxCell id="Md-v3TyA_MEy-HlheHZx-27" value="&amp;nbsp; &amp;nbsp; + Gender : String" style="text;strokeColor=none;fillColor=none;align=left;verticalAlign=top;spacingLeft=4;spacingRight=4;overflow=hidden;rotatable=0;points=[[0,0.5],[1,0.5]];portConstraint=eastwest;whiteSpace=wrap;html=1;" vertex="1" parent="Md-v3TyA_MEy-HlheHZx-22">
          <mxGeometry y="130" width="230" height="26" as="geometry" />
        </mxCell>
        <mxCell id="Md-v3TyA_MEy-HlheHZx-28" value="&amp;nbsp; &amp;nbsp; + RelationshipToColonist : String" style="text;strokeColor=none;fillColor=none;align=left;verticalAlign=top;spacingLeft=4;spacingRight=4;overflow=hidden;rotatable=0;points=[[0,0.5],[1,0.5]];portConstraint=eastwest;whiteSpace=wrap;html=1;" vertex="1" parent="Md-v3TyA_MEy-HlheHZx-22">
          <mxGeometry y="156" width="230" height="26" as="geometry" />
        </mxCell>
        <mxCell id="Md-v3TyA_MEy-HlheHZx-35" value="" style="endArrow=none;html=1;rounded=0;exitX=0.5;exitY=0;exitDx=0;exitDy=0;" edge="1" parent="1" source="Md-v3TyA_MEy-HlheHZx-22">
          <mxGeometry width="50" height="50" relative="1" as="geometry">
            <mxPoint x="500" y="940" as="sourcePoint" />
            <mxPoint x="385" y="799" as="targetPoint" />
          </mxGeometry>
        </mxCell>
        <mxCell id="Md-v3TyA_MEy-HlheHZx-36" value="Has" style="text;html=1;align=center;verticalAlign=middle;resizable=0;points=[];autosize=1;strokeColor=none;fillColor=none;" vertex="1" parent="1">
          <mxGeometry x="385" y="840" width="40" height="30" as="geometry" />
        </mxCell>
        <mxCell id="Md-v3TyA_MEy-HlheHZx-37" value="1" style="text;html=1;align=center;verticalAlign=middle;resizable=0;points=[];autosize=1;strokeColor=none;fillColor=none;" vertex="1" parent="1">
          <mxGeometry x="350" y="798" width="30" height="30" as="geometry" />
        </mxCell>
        <mxCell id="Md-v3TyA_MEy-HlheHZx-38" value="&lt;b&gt;Jet&lt;/b&gt;" style="swimlane;fontStyle=0;childLayout=stackLayout;horizontal=1;startSize=26;fillColor=none;horizontalStack=0;resizeParent=1;resizeParentMax=0;resizeLast=0;collapsible=1;marginBottom=0;whiteSpace=wrap;html=1;" vertex="1" parent="1">
          <mxGeometry x="-240" y="520" width="230" height="182" as="geometry" />
        </mxCell>
        <mxCell id="Md-v3TyA_MEy-HlheHZx-39" value="&amp;nbsp; &amp;nbsp; + JetCode : String" style="text;strokeColor=none;fillColor=none;align=left;verticalAlign=top;spacingLeft=4;spacingRight=4;overflow=hidden;rotatable=0;points=[[0,0.5],[1,0.5]];portConstraint=eastwest;whiteSpace=wrap;html=1;" vertex="1" parent="Md-v3TyA_MEy-HlheHZx-38">
          <mxGeometry y="26" width="230" height="26" as="geometry" />
        </mxCell>
        <mxCell id="Md-v3TyA_MEy-HlheHZx-40" value="&amp;nbsp; &amp;nbsp; + PassengerSeats : int" style="text;strokeColor=none;fillColor=none;align=left;verticalAlign=top;spacingLeft=4;spacingRight=4;overflow=hidden;rotatable=0;points=[[0,0.5],[1,0.5]];portConstraint=eastwest;whiteSpace=wrap;html=1;" vertex="1" parent="Md-v3TyA_MEy-HlheHZx-38">
          <mxGeometry y="52" width="230" height="26" as="geometry" />
        </mxCell>
        <mxCell id="Md-v3TyA_MEy-HlheHZx-41" value="&amp;nbsp; &amp;nbsp; + EngineType : String" style="text;strokeColor=none;fillColor=none;align=left;verticalAlign=top;spacingLeft=4;spacingRight=4;overflow=hidden;rotatable=0;points=[[0,0.5],[1,0.5]];portConstraint=eastwest;whiteSpace=wrap;html=1;" vertex="1" parent="Md-v3TyA_MEy-HlheHZx-38">
          <mxGeometry y="78" width="230" height="26" as="geometry" />
        </mxCell>
        <mxCell id="Md-v3TyA_MEy-HlheHZx-42" value="&amp;nbsp; &amp;nbsp; + MadeYear : int" style="text;strokeColor=none;fillColor=none;align=left;verticalAlign=top;spacingLeft=4;spacingRight=4;overflow=hidden;rotatable=0;points=[[0,0.5],[1,0.5]];portConstraint=eastwest;whiteSpace=wrap;html=1;" vertex="1" parent="Md-v3TyA_MEy-HlheHZx-38">
          <mxGeometry y="104" width="230" height="26" as="geometry" />
        </mxCell>
        <mxCell id="Md-v3TyA_MEy-HlheHZx-43" value="&amp;nbsp; &amp;nbsp; + Weight : double" style="text;strokeColor=none;fillColor=none;align=left;verticalAlign=top;spacingLeft=4;spacingRight=4;overflow=hidden;rotatable=0;points=[[0,0.5],[1,0.5]];portConstraint=eastwest;whiteSpace=wrap;html=1;" vertex="1" parent="Md-v3TyA_MEy-HlheHZx-38">
          <mxGeometry y="130" width="230" height="26" as="geometry" />
        </mxCell>
        <mxCell id="Md-v3TyA_MEy-HlheHZx-44" value="&amp;nbsp; &amp;nbsp; + PowerSource : String" style="text;strokeColor=none;fillColor=none;align=left;verticalAlign=top;spacingLeft=4;spacingRight=4;overflow=hidden;rotatable=0;points=[[0,0.5],[1,0.5]];portConstraint=eastwest;whiteSpace=wrap;html=1;" vertex="1" parent="Md-v3TyA_MEy-HlheHZx-38">
          <mxGeometry y="156" width="230" height="26" as="geometry" />
        </mxCell>
        <mxCell id="Md-v3TyA_MEy-HlheHZx-45" value="&lt;b&gt;Trip&lt;/b&gt;" style="swimlane;fontStyle=0;childLayout=stackLayout;horizontal=1;startSize=26;fillColor=none;horizontalStack=0;resizeParent=1;resizeParentMax=0;resizeLast=0;collapsible=1;marginBottom=0;whiteSpace=wrap;html=1;" vertex="1" parent="1">
          <mxGeometry x="-130" y="910" width="230" height="130" as="geometry" />
        </mxCell>
        <mxCell id="Md-v3TyA_MEy-HlheHZx-46" value="&amp;nbsp; &amp;nbsp; + TripID : int" style="text;strokeColor=none;fillColor=none;align=left;verticalAlign=top;spacingLeft=4;spacingRight=4;overflow=hidden;rotatable=0;points=[[0,0.5],[1,0.5]];portConstraint=eastwest;whiteSpace=wrap;html=1;" vertex="1" parent="Md-v3TyA_MEy-HlheHZx-45">
          <mxGeometry y="26" width="230" height="26" as="geometry" />
        </mxCell>
        <mxCell id="Md-v3TyA_MEy-HlheHZx-47" value="&amp;nbsp; &amp;nbsp; + JetCode : String" style="text;strokeColor=none;fillColor=none;align=left;verticalAlign=top;spacingLeft=4;spacingRight=4;overflow=hidden;rotatable=0;points=[[0,0.5],[1,0.5]];portConstraint=eastwest;whiteSpace=wrap;html=1;" vertex="1" parent="Md-v3TyA_MEy-HlheHZx-45">
          <mxGeometry y="52" width="230" height="26" as="geometry" />
        </mxCell>
        <mxCell id="Md-v3TyA_MEy-HlheHZx-48" value="&amp;nbsp; &amp;nbsp; + LaunchDate : Date" style="text;strokeColor=none;fillColor=none;align=left;verticalAlign=top;spacingLeft=4;spacingRight=4;overflow=hidden;rotatable=0;points=[[0,0.5],[1,0.5]];portConstraint=eastwest;whiteSpace=wrap;html=1;" vertex="1" parent="Md-v3TyA_MEy-HlheHZx-45">
          <mxGeometry y="78" width="230" height="26" as="geometry" />
        </mxCell>
        <mxCell id="Md-v3TyA_MEy-HlheHZx-49" value="&amp;nbsp; &amp;nbsp; + ReturnDate : Date" style="text;strokeColor=none;fillColor=none;align=left;verticalAlign=top;spacingLeft=4;spacingRight=4;overflow=hidden;rotatable=0;points=[[0,0.5],[1,0.5]];portConstraint=eastwest;whiteSpace=wrap;html=1;" vertex="1" parent="Md-v3TyA_MEy-HlheHZx-45">
          <mxGeometry y="104" width="230" height="26" as="geometry" />
        </mxCell>
        <mxCell id="Md-v3TyA_MEy-HlheHZx-52" value="" style="endArrow=none;html=1;rounded=0;exitX=0.4;exitY=-0.008;exitDx=0;exitDy=0;exitPerimeter=0;" edge="1" parent="1" source="Md-v3TyA_MEy-HlheHZx-45">
          <mxGeometry width="50" height="50" relative="1" as="geometry">
            <mxPoint x="-40" y="813" as="sourcePoint" />
            <mxPoint x="-40" y="702" as="targetPoint" />
          </mxGeometry>
        </mxCell>
        <mxCell id="Md-v3TyA_MEy-HlheHZx-53" value="1" style="text;html=1;align=center;verticalAlign=middle;resizable=0;points=[];autosize=1;strokeColor=none;fillColor=none;" vertex="1" parent="1">
          <mxGeometry x="-70" y="702" width="30" height="30" as="geometry" />
        </mxCell>
        <mxCell id="Md-v3TyA_MEy-HlheHZx-54" value="Used in" style="text;html=1;align=center;verticalAlign=middle;resizable=0;points=[];autosize=1;strokeColor=none;fillColor=none;" vertex="1" parent="1">
          <mxGeometry x="-40" y="790" width="60" height="30" as="geometry" />
        </mxCell>
        <mxCell id="Md-v3TyA_MEy-HlheHZx-55" value="&lt;b&gt;Pilot&lt;/b&gt;" style="swimlane;fontStyle=0;childLayout=stackLayout;horizontal=1;startSize=26;fillColor=none;horizontalStack=0;resizeParent=1;resizeParentMax=0;resizeLast=0;collapsible=1;marginBottom=0;whiteSpace=wrap;html=1;" vertex="1" parent="1">
          <mxGeometry x="-430" y="910" width="230" height="182" as="geometry" />
        </mxCell>
        <mxCell id="Md-v3TyA_MEy-HlheHZx-56" value="&amp;nbsp; &amp;nbsp; + PilotID : int" style="text;strokeColor=none;fillColor=none;align=left;verticalAlign=top;spacingLeft=4;spacingRight=4;overflow=hidden;rotatable=0;points=[[0,0.5],[1,0.5]];portConstraint=eastwest;whiteSpace=wrap;html=1;" vertex="1" parent="Md-v3TyA_MEy-HlheHZx-55">
          <mxGeometry y="26" width="230" height="26" as="geometry" />
        </mxCell>
        <mxCell id="Md-v3TyA_MEy-HlheHZx-57" value="&amp;nbsp; &amp;nbsp; + PilotName : String" style="text;strokeColor=none;fillColor=none;align=left;verticalAlign=top;spacingLeft=4;spacingRight=4;overflow=hidden;rotatable=0;points=[[0,0.5],[1,0.5]];portConstraint=eastwest;whiteSpace=wrap;html=1;" vertex="1" parent="Md-v3TyA_MEy-HlheHZx-55">
          <mxGeometry y="52" width="230" height="26" as="geometry" />
        </mxCell>
        <mxCell id="Md-v3TyA_MEy-HlheHZx-58" value="&amp;nbsp; &amp;nbsp; + SpaceHours : double" style="text;strokeColor=none;fillColor=none;align=left;verticalAlign=top;spacingLeft=4;spacingRight=4;overflow=hidden;rotatable=0;points=[[0,0.5],[1,0.5]];portConstraint=eastwest;whiteSpace=wrap;html=1;" vertex="1" parent="Md-v3TyA_MEy-HlheHZx-55">
          <mxGeometry y="78" width="230" height="26" as="geometry" />
        </mxCell>
        <mxCell id="Md-v3TyA_MEy-HlheHZx-59" value="&amp;nbsp; &amp;nbsp; + Qualification : String" style="text;strokeColor=none;fillColor=none;align=left;verticalAlign=top;spacingLeft=4;spacingRight=4;overflow=hidden;rotatable=0;points=[[0,0.5],[1,0.5]];portConstraint=eastwest;whiteSpace=wrap;html=1;" vertex="1" parent="Md-v3TyA_MEy-HlheHZx-55">
          <mxGeometry y="104" width="230" height="26" as="geometry" />
        </mxCell>
        <mxCell id="Md-v3TyA_MEy-HlheHZx-60" value="&amp;nbsp; &amp;nbsp; + Designation : String" style="text;strokeColor=none;fillColor=none;align=left;verticalAlign=top;spacingLeft=4;spacingRight=4;overflow=hidden;rotatable=0;points=[[0,0.5],[1,0.5]];portConstraint=eastwest;whiteSpace=wrap;html=1;" vertex="1" parent="Md-v3TyA_MEy-HlheHZx-55">
          <mxGeometry y="130" width="230" height="26" as="geometry" />
        </mxCell>
        <mxCell id="Md-v3TyA_MEy-HlheHZx-61" value="&amp;nbsp; &amp;nbsp; + JetCode : String" style="text;strokeColor=none;fillColor=none;align=left;verticalAlign=top;spacingLeft=4;spacingRight=4;overflow=hidden;rotatable=0;points=[[0,0.5],[1,0.5]];portConstraint=eastwest;whiteSpace=wrap;html=1;" vertex="1" parent="Md-v3TyA_MEy-HlheHZx-55">
          <mxGeometry y="156" width="230" height="26" as="geometry" />
        </mxCell>
        <mxCell id="Md-v3TyA_MEy-HlheHZx-62" value="" style="endArrow=none;html=1;rounded=0;exitX=0.4;exitY=-0.008;exitDx=0;exitDy=0;exitPerimeter=0;" edge="1" parent="1">
          <mxGeometry width="50" height="50" relative="1" as="geometry">
            <mxPoint x="-218" y="910" as="sourcePoint" />
            <mxPoint x="-220" y="703" as="targetPoint" />
          </mxGeometry>
        </mxCell>
        <mxCell id="Md-v3TyA_MEy-HlheHZx-63" value="1" style="text;html=1;align=center;verticalAlign=middle;resizable=0;points=[];autosize=1;strokeColor=none;fillColor=none;" vertex="1" parent="1">
          <mxGeometry x="-250" y="880" width="30" height="30" as="geometry" />
        </mxCell>
        <mxCell id="Md-v3TyA_MEy-HlheHZx-64" value="Assigned to" style="text;html=1;align=center;verticalAlign=middle;resizable=0;points=[];autosize=1;strokeColor=none;fillColor=none;" vertex="1" parent="1">
          <mxGeometry x="-310" y="790" width="90" height="30" as="geometry" />
        </mxCell>
        <mxCell id="Md-v3TyA_MEy-HlheHZx-65" value="" style="endArrow=none;html=1;rounded=0;entryX=0;entryY=0.5;entryDx=0;entryDy=0;exitX=1;exitY=0;exitDx=0;exitDy=0;" edge="1" parent="1" source="Md-v3TyA_MEy-HlheHZx-45" target="Md-v3TyA_MEy-HlheHZx-17">
          <mxGeometry width="50" height="50" relative="1" as="geometry">
            <mxPoint x="160" y="830" as="sourcePoint" />
            <mxPoint x="210" y="780" as="targetPoint" />
          </mxGeometry>
        </mxCell>
        <mxCell id="Md-v3TyA_MEy-HlheHZx-66" value="Passengers in" style="text;html=1;align=center;verticalAlign=middle;resizable=0;points=[];autosize=1;strokeColor=none;fillColor=none;" vertex="1" parent="1">
          <mxGeometry x="160" y="860" width="100" height="30" as="geometry" />
        </mxCell>
        <mxCell id="Md-v3TyA_MEy-HlheHZx-67" value="&lt;b&gt;Job&lt;/b&gt;" style="swimlane;fontStyle=0;childLayout=stackLayout;horizontal=1;startSize=26;fillColor=none;horizontalStack=0;resizeParent=1;resizeParentMax=0;resizeLast=0;collapsible=1;marginBottom=0;whiteSpace=wrap;html=1;" vertex="1" parent="1">
          <mxGeometry x="270" y="1210" width="230" height="130" as="geometry" />
        </mxCell>
        <mxCell id="Md-v3TyA_MEy-HlheHZx-68" value="&amp;nbsp; &amp;nbsp; + JobID : int" style="text;strokeColor=none;fillColor=none;align=left;verticalAlign=top;spacingLeft=4;spacingRight=4;overflow=hidden;rotatable=0;points=[[0,0.5],[1,0.5]];portConstraint=eastwest;whiteSpace=wrap;html=1;" vertex="1" parent="Md-v3TyA_MEy-HlheHZx-67">
          <mxGeometry y="26" width="230" height="26" as="geometry" />
        </mxCell>
        <mxCell id="Md-v3TyA_MEy-HlheHZx-69" value="&amp;nbsp; &amp;nbsp; + JobName : String" style="text;strokeColor=none;fillColor=none;align=left;verticalAlign=top;spacingLeft=4;spacingRight=4;overflow=hidden;rotatable=0;points=[[0,0.5],[1,0.5]];portConstraint=eastwest;whiteSpace=wrap;html=1;" vertex="1" parent="Md-v3TyA_MEy-HlheHZx-67">
          <mxGeometry y="52" width="230" height="26" as="geometry" />
        </mxCell>
        <mxCell id="Md-v3TyA_MEy-HlheHZx-70" value="&amp;nbsp; &amp;nbsp; + ColonistID : int" style="text;strokeColor=none;fillColor=none;align=left;verticalAlign=top;spacingLeft=4;spacingRight=4;overflow=hidden;rotatable=0;points=[[0,0.5],[1,0.5]];portConstraint=eastwest;whiteSpace=wrap;html=1;" vertex="1" parent="Md-v3TyA_MEy-HlheHZx-67">
          <mxGeometry y="78" width="230" height="26" as="geometry" />
        </mxCell>
        <mxCell id="Md-v3TyA_MEy-HlheHZx-71" value="&amp;nbsp; &amp;nbsp; + TripID : int" style="text;strokeColor=none;fillColor=none;align=left;verticalAlign=top;spacingLeft=4;spacingRight=4;overflow=hidden;rotatable=0;points=[[0,0.5],[1,0.5]];portConstraint=eastwest;whiteSpace=wrap;html=1;" vertex="1" parent="Md-v3TyA_MEy-HlheHZx-67">
          <mxGeometry y="104" width="230" height="26" as="geometry" />
        </mxCell>
        <mxCell id="Md-v3TyA_MEy-HlheHZx-72" value="" style="endArrow=none;html=1;rounded=0;exitX=1;exitY=-0.133;exitDx=0;exitDy=0;exitPerimeter=0;entryX=0;entryY=0.5;entryDx=0;entryDy=0;" edge="1" parent="1" source="Md-v3TyA_MEy-HlheHZx-74" target="Md-v3TyA_MEy-HlheHZx-68">
          <mxGeometry width="50" height="50" relative="1" as="geometry">
            <mxPoint x="150" y="1000" as="sourcePoint" />
            <mxPoint x="200" y="950" as="targetPoint" />
          </mxGeometry>
        </mxCell>
        <mxCell id="Md-v3TyA_MEy-HlheHZx-73" value="Part of" style="text;html=1;align=center;verticalAlign=middle;resizable=0;points=[];autosize=1;strokeColor=none;fillColor=none;" vertex="1" parent="1">
          <mxGeometry x="190" y="1130" width="60" height="30" as="geometry" />
        </mxCell>
        <mxCell id="Md-v3TyA_MEy-HlheHZx-74" value="1" style="text;html=1;align=center;verticalAlign=middle;resizable=0;points=[];autosize=1;strokeColor=none;fillColor=none;" vertex="1" parent="1">
          <mxGeometry x="70" y="1040" width="30" height="30" as="geometry" />
        </mxCell>
        <mxCell id="Md-v3TyA_MEy-HlheHZx-78" value="" style="endArrow=none;html=1;rounded=0;edgeStyle=orthogonalEdgeStyle;curved=1;entryX=1;entryY=0.5;entryDx=0;entryDy=0;exitX=1;exitY=0.5;exitDx=0;exitDy=0;" edge="1" parent="1" source="Md-v3TyA_MEy-HlheHZx-68" target="Md-v3TyA_MEy-HlheHZx-17">
          <mxGeometry width="50" height="50" relative="1" as="geometry">
            <mxPoint x="610" y="1150" as="sourcePoint" />
            <mxPoint x="660" y="1100" as="targetPoint" />
            <Array as="points">
              <mxPoint x="620" y="1249" />
              <mxPoint x="620" y="759" />
            </Array>
          </mxGeometry>
        </mxCell>
        <mxCell id="Md-v3TyA_MEy-HlheHZx-79" value="Works in" style="text;html=1;align=center;verticalAlign=middle;resizable=0;points=[];autosize=1;strokeColor=none;fillColor=none;" vertex="1" parent="1">
          <mxGeometry x="620" y="986" width="70" height="30" as="geometry" />
        </mxCell>
      </root>
    </mxGraphModel>
  </diagram>
</mxfile>
